<svg width="40" height="40" viewBox="0 0 40 40" fill="none" xmlns="http://www.w3.org/2000/svg">
<g id="24-hours-support 1" clip-path="url(#clip0_12_468)">
<path id="_x32_4_Hours_Support" d="M19.2208 30.8814C17.8853 30.7873 16.5962 30.4536 15.389 29.8895C15.1708 29.7877 14.9208 29.7759 14.6935 29.8586C14.4672 29.9414 14.2826 30.1105 14.1803 30.3291L13.0394 32.7755C10.5867 31.4364 8.56306 29.4127 7.22442 26.96L9.67033 25.8195C9.88897 25.7177 10.0585 25.5332 10.1408 25.3064C10.2231 25.0795 10.2117 24.8291 10.1099 24.6109C9.54624 23.4036 9.21215 22.1145 9.11806 20.7782C9.05079 19.8323 8.25579 19.0909 7.30806 19.0909H0.908969C0.407151 19.0909 -0.00012207 19.4982 -0.00012207 20C-0.00012207 31.0282 8.9717 40 19.9999 40C20.5017 40 20.909 39.5927 20.909 39.0909V32.6918C20.909 31.7441 20.1676 30.9491 19.2208 30.8814ZM19.0908 38.1591C9.7867 37.6991 2.30079 30.2127 1.84079 20.9086L7.30488 20.9068C7.39306 22.1609 7.66261 23.3795 8.1076 24.5423L5.60624 25.7086C5.38761 25.8105 5.21806 25.995 5.13579 26.2218C5.05351 26.4486 5.06442 26.6986 5.16624 26.9173C6.7917 30.3964 9.60352 33.2082 13.0826 34.8336C13.3003 34.9355 13.5503 34.9468 13.7781 34.8641C14.0049 34.7814 14.1894 34.6123 14.2912 34.3936L15.4576 31.8923C16.6203 32.3373 17.8385 32.6059 19.0908 32.6914V38.1591ZM18.1817 18.1818V17.2727C18.1817 16.7714 17.774 16.3636 17.2726 16.3636H14.5453C14.0435 16.3636 13.6362 15.9564 13.6362 15.4545C13.6362 14.9527 14.0435 14.5455 14.5453 14.5455H17.2726C18.7767 14.5455 19.9999 15.7686 19.9999 17.2727V18.1818C19.9999 19.6859 18.7767 20.9091 17.2726 20.9091H16.3635C15.8622 20.9091 15.4544 21.3168 15.4544 21.8182V23.6364H19.0908C19.5926 23.6364 19.9999 24.0436 19.9999 24.5455C19.9999 25.0473 19.5926 25.4545 19.0908 25.4545H14.5453C14.0435 25.4545 13.6362 25.0473 13.6362 24.5455V21.8182C13.6362 20.3141 14.8594 19.0909 16.3635 19.0909H17.2726C17.774 19.0909 18.1817 18.6832 18.1817 18.1818ZM26.3635 20.9091H22.7272C22.2253 20.9091 21.8181 20.5018 21.8181 20V15.4545C21.8181 14.9527 22.2253 14.5455 22.7272 14.5455C23.229 14.5455 23.6362 14.9527 23.6362 15.4545V19.0909H26.3635V15.4545C26.3635 14.9527 26.7708 14.5455 27.2726 14.5455C27.7744 14.5455 28.1817 14.9527 28.1817 15.4545V24.5455C28.1817 25.0473 27.7744 25.4545 27.2726 25.4545C26.7708 25.4545 26.3635 25.0473 26.3635 24.5455V20.9091ZM39.9999 20C39.9999 29.0445 33.9044 36.9909 25.1772 39.3236C25.0985 39.3445 25.0194 39.3545 24.9417 39.3545C24.5399 39.3545 24.1726 39.0859 24.0635 38.68C23.934 38.195 24.2222 37.6968 24.7072 37.5668C27.5631 36.8036 30.1067 35.3764 32.1958 33.4818L30.2853 31.5714C29.9303 31.2164 29.9303 30.6409 30.2853 30.2859C30.6403 29.9309 31.2158 29.9309 31.5708 30.2859L33.4826 32.1977C36.2344 29.15 37.9431 25.1886 38.1567 20.9095H35.4544C34.9526 20.9095 34.5453 20.5023 34.5453 20.0005C34.5453 19.4986 34.9526 19.0914 35.4544 19.0914H38.1585C37.9444 14.7623 36.2085 10.8268 33.4762 7.80955L31.5703 9.71546C31.3926 9.89318 31.1603 9.98182 30.9276 9.98182C30.6949 9.98182 30.4626 9.89318 30.2849 9.71546C29.9299 9.36046 29.9299 8.785 30.2849 8.43L32.1908 6.52409C29.1735 3.79136 25.2381 2.05545 20.909 1.84136V4.54545C20.909 5.04727 20.5017 5.45455 19.9999 5.45455C19.4981 5.45455 19.0908 5.04727 19.0908 4.54545V1.84318C14.8122 2.05682 10.8503 3.76545 7.80261 6.51727L9.71442 8.42909C10.0694 8.78409 10.0694 9.35955 9.71442 9.71455C9.5367 9.89227 9.30442 9.98091 9.0717 9.98091C8.83897 9.98091 8.6067 9.89227 8.42897 9.71455L6.51851 7.80409C4.62397 9.89318 3.1967 12.4364 2.43351 15.2923C2.30351 15.7773 1.80488 16.0655 1.32033 15.9359C0.835333 15.8064 0.547151 15.3082 0.676696 14.8227C3.00897 6.09545 10.9553 0 19.9999 0C31.0281 0 39.9999 8.97182 39.9999 20Z" fill="#005743"/>
</g>
<defs>
<clipPath id="clip0_12_468">
<rect width="40" height="40" fill="white"/>
</clipPath>
</defs>
</svg>
