<svg width="40" height="40" viewBox="0 0 40 40" fill="none" xmlns="http://www.w3.org/2000/svg">
<g id="award 1" clip-path="url(#clip0_12_393)">
<g id="Medal">
<path id="Vector" d="M35.6402 36.0403L31.1224 24.1619C31.5688 23.895 31.9568 23.5409 32.2631 23.1206C32.5923 22.6683 32.8176 22.1488 32.923 21.5994C33.0284 21.0499 33.0113 20.484 32.8729 19.9419C32.7559 19.4679 32.7756 18.9705 32.9296 18.5072C33.0836 18.0439 33.3657 17.6337 33.7433 17.3242C34.1802 16.966 34.5322 16.5151 34.7736 16.0043C35.015 15.4934 35.1399 14.9353 35.1391 14.3703C35.1384 13.8053 35.0122 13.2474 34.7695 12.7372C34.5268 12.2269 34.1738 11.777 33.7359 11.4199C33.3598 11.1091 33.0793 10.6982 32.9269 10.2346C32.7746 9.77112 32.7565 9.27393 32.8749 8.80059C33.0122 8.25944 33.0286 7.6947 32.9229 7.14651C32.8172 6.59832 32.592 6.08014 32.2634 5.62884C31.9264 5.16525 31.4913 4.78168 30.9892 4.50544C30.487 4.2292 29.9301 4.06709 29.3581 4.03065C28.8661 3.99753 28.3929 3.82817 27.9916 3.54151C27.5903 3.25485 27.2767 2.8622 27.0858 2.40746C26.872 1.8869 26.5473 1.41923 26.1343 1.03709C25.7212 0.65495 25.2297 0.367536 24.6941 0.1949C24.1509 0.0172713 23.5754 -0.0397438 23.0079 0.0278286C22.4403 0.095401 21.8944 0.285935 21.408 0.58615C20.9839 0.845244 20.4966 0.982333 19.9996 0.982333C19.5027 0.982333 19.0153 0.845244 18.5913 0.58615C18.1049 0.285923 17.5589 0.0953822 16.9914 0.0278095C16.4238 -0.0397632 15.8484 0.0172586 15.3051 0.1949C14.7697 0.367677 14.2785 0.655146 13.8655 1.03727C13.4526 1.41939 13.128 1.88696 12.9144 2.4074C12.7229 2.86298 12.4083 3.25622 12.0059 3.54302C11.6034 3.82982 11.1291 3.99885 10.6359 4.03115C10.065 4.06816 9.50914 4.23056 9.00805 4.50679C8.50695 4.78302 8.07289 5.16629 7.73676 5.62934C7.4076 6.08173 7.18229 6.60117 7.0769 7.15062C6.9715 7.70007 6.98861 8.26601 7.12701 8.80809C7.24398 9.28209 7.22431 9.77953 7.07028 10.2428C6.91624 10.7061 6.63414 11.1163 6.25663 11.4259C5.81965 11.7841 5.46773 12.2349 5.22632 12.7458C4.98491 13.2566 4.86004 13.8147 4.86075 14.3797C4.86145 14.9448 4.98771 15.5026 5.2304 16.0128C5.47309 16.5231 5.82613 16.973 6.26401 17.3301C6.64011 17.6409 6.92056 18.0518 7.07291 18.5153C7.22527 18.9787 7.24331 19.4759 7.12495 19.9492C6.98766 20.4904 6.97129 21.0551 7.07699 21.6033C7.18269 22.1515 7.40787 22.6697 7.73651 23.121C8.043 23.541 8.43102 23.8949 8.87738 24.1615L4.3597 36.0403C4.31712 36.152 4.30748 36.2735 4.33193 36.3905C4.35637 36.5075 4.41386 36.615 4.49758 36.7003C4.58131 36.7856 4.68775 36.8451 4.80426 36.8717C4.92078 36.8983 5.04249 36.8909 5.15495 36.8505L10.0756 35.0817L12.5763 39.6737C12.6299 39.7724 12.7092 39.8547 12.8058 39.9122C12.9023 39.9696 13.0126 39.9999 13.1249 39.9999C13.139 39.9999 13.153 39.9993 13.1671 39.9984C13.2863 39.9903 13.4008 39.9483 13.4968 39.8771C13.5929 39.806 13.6666 39.7088 13.7091 39.5971L17.9388 28.4821C18.1658 28.3962 18.3845 28.2895 18.5919 28.1633C19.0159 27.9044 19.5031 27.7674 19.9999 27.7674C20.4968 27.7674 20.984 27.9044 21.408 28.1633L21.4086 28.1637C21.6155 28.2881 21.8334 28.3933 22.0596 28.4778L26.2908 39.5965C26.3333 39.7082 26.407 39.8054 26.503 39.8766C26.5991 39.9477 26.7136 39.9898 26.8328 39.9978C26.8469 39.9987 26.8609 39.9993 26.8749 39.9993C26.9873 39.9993 27.0976 39.969 27.1941 39.9116C27.2907 39.8542 27.37 39.7718 27.4236 39.6731L29.9243 35.0812L34.8449 36.8499C34.9574 36.8904 35.0791 36.8978 35.1956 36.8712C35.3121 36.8445 35.4186 36.7851 35.5023 36.6998C35.586 36.6145 35.6435 36.5069 35.668 36.3899C35.6924 36.2729 35.6828 36.1514 35.6402 36.0397V36.0403ZM13.0243 37.8826L10.9173 34.0138C10.8459 33.8829 10.7302 33.7819 10.5908 33.7288C10.4515 33.6758 10.2978 33.6742 10.1574 33.7245L6.0107 35.2148L10.0383 24.6259C10.2368 24.6724 10.4387 24.7036 10.642 24.7192C11.1341 24.7523 11.6072 24.9216 12.0085 25.2083C12.4098 25.4949 12.7235 25.8876 12.9144 26.3423C13.1281 26.8629 13.4528 27.3305 13.8658 27.7126C14.2788 28.0948 14.7702 28.3822 15.3058 28.5548C15.692 28.6796 16.0951 28.744 16.501 28.746L13.0243 37.8826ZM17.9345 27.0999C17.6027 27.3048 17.2302 27.4348 16.843 27.4808C16.4558 27.5268 16.0632 27.4877 15.6927 27.3663C15.3299 27.2496 14.9968 27.0552 14.7169 26.7966C14.4369 26.5381 14.2167 26.2215 14.0716 25.8691C13.7908 25.1977 13.3286 24.6178 12.7368 24.1943C12.1449 23.7709 11.4468 23.5206 10.7208 23.4716C10.3325 23.4468 9.95457 23.3366 9.61373 23.1491C9.27289 22.9616 8.97754 22.7013 8.7487 22.3867C8.52733 22.0825 8.37585 21.7332 8.30506 21.3637C8.23428 20.9942 8.24593 20.6137 8.3392 20.2492C8.51345 19.5457 8.4851 18.8071 8.25743 18.119C8.02976 17.4309 7.61205 16.8212 7.05257 16.3604C6.75761 16.1195 6.52005 15.8158 6.35713 15.4716C6.19422 15.1274 6.11005 14.7511 6.11075 14.3703C6.11145 13.9894 6.197 13.6135 6.36118 13.2699C6.52536 12.9262 6.76404 12.6235 7.05988 12.3836C7.61801 11.9217 8.03412 11.3114 8.26018 10.6231C8.48624 9.93475 8.51302 9.19654 8.33745 8.49365C8.24526 8.13009 8.23433 7.75068 8.30543 7.38241C8.37653 7.01415 8.52792 6.66608 8.74882 6.36296C8.97856 6.04768 9.27501 5.78696 9.61704 5.59938C9.95908 5.41179 10.3383 5.30196 10.7276 5.27771C11.4526 5.22778 12.1493 4.97712 12.7399 4.55377C13.3305 4.13042 13.7916 3.55109 14.0717 2.88059C14.2167 2.52812 14.4368 2.21155 14.7168 1.95301C14.9969 1.69446 15.3299 1.50017 15.6928 1.38371C16.0635 1.26239 16.4562 1.22337 16.8434 1.26937C17.2307 1.31538 17.6033 1.4453 17.9353 1.65009C18.5571 2.02985 19.2717 2.23077 20.0004 2.23077C20.7291 2.23077 21.4436 2.02985 22.0655 1.65009C22.3973 1.44536 22.7698 1.31546 23.157 1.26945C23.5442 1.22345 23.9368 1.26244 24.3073 1.38371C24.6702 1.50037 25.0032 1.69477 25.2832 1.95335C25.5631 2.21193 25.7834 2.52847 25.9284 2.8809C26.2092 3.55228 26.6714 4.13221 27.2633 4.55566C27.8551 4.97911 28.5532 5.22935 29.2793 5.27834C29.6675 5.30325 30.0454 5.41338 30.3863 5.60089C30.7271 5.78841 31.0225 6.0487 31.2513 6.36327C31.4727 6.66746 31.6242 7.01676 31.695 7.38626C31.7658 7.75575 31.7541 8.13631 31.6608 8.50077C31.4866 9.20434 31.5149 9.94284 31.7426 10.631C31.9703 11.3191 32.388 11.9288 32.9474 12.3896C33.2424 12.6305 33.48 12.9341 33.6429 13.2784C33.8058 13.6226 33.89 13.9989 33.8893 14.3797C33.8886 14.7605 33.803 15.1365 33.6388 15.4801C33.4747 15.8237 33.236 16.1265 32.9401 16.3663C32.382 16.8282 31.9659 17.4385 31.7398 18.1268C31.5137 18.8151 31.4869 19.5533 31.6624 20.2562C31.7546 20.6197 31.7656 20.9991 31.6945 21.3674C31.6234 21.7357 31.472 22.0837 31.2511 22.3868C31.0213 22.7021 30.7249 22.9629 30.3829 23.1504C30.0408 23.338 29.6616 23.4479 29.2723 23.4721C28.5473 23.522 27.8506 23.7727 27.26 24.196C26.6694 24.6194 26.2083 25.1987 25.9282 25.8692C25.7832 26.2217 25.5631 26.5382 25.283 26.7968C25.003 27.0553 24.67 27.2496 24.3071 27.3661C23.9365 27.4878 23.5437 27.527 23.1564 27.481C22.769 27.435 22.3964 27.3048 22.0646 27.0997C21.4427 26.72 20.7282 26.5191 19.9995 26.5192C19.2709 26.5192 18.5564 26.7201 17.9345 27.0999ZM29.8424 33.7243C29.7021 33.6739 29.5484 33.6754 29.409 33.7285C29.2697 33.7815 29.1539 33.8827 29.0826 34.0136L26.9756 37.8823L23.4994 28.7474C23.9051 28.745 24.3081 28.6802 24.6941 28.5552C25.2298 28.3825 25.7212 28.095 26.1344 27.7128C26.5475 27.3306 26.8723 26.8629 27.0861 26.3423C27.2774 25.8867 27.5918 25.4934 27.9942 25.2066C28.3965 24.9198 28.8709 24.7508 29.3639 24.7187C29.5653 24.7032 29.7652 24.6723 29.9619 24.6263L33.9892 35.2146L29.8424 33.7243Z" fill="#005743"/>
<path id="Vector_2" d="M29.375 14.375C29.375 12.5208 28.8252 10.7082 27.795 9.16653C26.7649 7.62482 25.3007 6.42321 23.5877 5.71363C21.8746 5.00406 19.9896 4.81841 18.171 5.18014C16.3525 5.54188 14.682 6.43476 13.3709 7.74588C12.0598 9.057 11.1669 10.7275 10.8051 12.546C10.4434 14.3646 10.6291 16.2496 11.3386 17.9627C12.0482 19.6757 13.2498 21.1399 14.7915 22.17C16.3332 23.2002 18.1458 23.75 20 23.75C22.4856 23.7472 24.8685 22.7586 26.6261 21.0011C28.3836 19.2435 29.3722 16.8606 29.375 14.375ZM20 22.5C18.393 22.5 16.8221 22.0235 15.486 21.1307C14.1498 20.2379 13.1084 18.969 12.4935 17.4843C11.8785 15.9997 11.7176 14.366 12.0311 12.7899C12.3446 11.2138 13.1185 9.76606 14.2548 8.62976C15.3911 7.49346 16.8388 6.71963 18.4149 6.40612C19.991 6.09262 21.6247 6.25352 23.1093 6.86848C24.594 7.48345 25.8629 8.52485 26.7557 9.861C27.6485 11.1971 28.125 12.768 28.125 14.375C28.1226 16.5291 27.2658 18.5944 25.7426 20.1176C24.2194 21.6408 22.1541 22.4976 20 22.5Z" fill="#005743"/>
<path id="Vector_3" d="M24.9706 12.3024L21.9231 11.8596L20.5602 9.09831C20.5027 9.00085 20.4208 8.92007 20.3225 8.86395C20.2243 8.80784 20.1131 8.77832 19.9999 8.77832C19.8867 8.77832 19.7755 8.80784 19.6773 8.86395C19.579 8.92007 19.4971 9.00085 19.4396 9.09831L18.0767 11.8596L15.0292 12.3024C14.9137 12.3191 14.8052 12.3677 14.716 12.4429C14.6268 12.5181 14.5604 12.6167 14.5243 12.7277C14.4882 12.8386 14.4839 12.9575 14.5119 13.0707C14.5398 13.184 14.599 13.2872 14.6825 13.3686L16.8883 15.518L16.3677 18.553C16.3481 18.6679 16.3609 18.7859 16.4049 18.8939C16.4488 19.0018 16.522 19.0953 16.6162 19.1638C16.7105 19.2324 16.822 19.2732 16.9383 19.2817C17.0545 19.2901 17.1708 19.266 17.274 19.2119L19.9999 17.7791L22.7257 19.2119C22.8289 19.266 22.9452 19.2901 23.0614 19.2817C23.1776 19.2732 23.2892 19.2324 23.3834 19.1638C23.4777 19.0953 23.5509 19.0018 23.5948 18.8939C23.6387 18.7859 23.6516 18.6679 23.632 18.553L23.1113 15.518L25.3172 13.3686C25.4007 13.2872 25.4598 13.184 25.4878 13.0707C25.5158 12.9575 25.5115 12.8386 25.4754 12.7277C25.4393 12.6167 25.3729 12.5181 25.2837 12.4429C25.1944 12.3677 25.0859 12.3191 24.9705 12.3024H24.9706ZM22.0037 14.8524C21.9312 14.9232 21.877 15.0105 21.8458 15.1069C21.8145 15.2032 21.8071 15.3058 21.8242 15.4056L22.1862 17.5162L20.2904 16.5198C20.2008 16.4727 20.101 16.4481 19.9998 16.4481C19.8985 16.4481 19.7988 16.4727 19.7092 16.5198L17.8137 17.516L18.1756 15.4054C18.1927 15.3055 18.1853 15.203 18.154 15.1066C18.1228 15.0103 18.0686 14.9229 17.9961 14.8521L16.4624 13.3574L18.5816 13.0494C18.6819 13.0349 18.7772 12.9961 18.8592 12.9365C18.9411 12.8769 19.0074 12.7982 19.0522 12.7073L19.9999 10.7873L20.9478 12.7074C20.9926 12.7984 21.0588 12.877 21.1408 12.9367C21.2228 12.9963 21.318 13.035 21.4183 13.0496L23.5375 13.3575L22.0037 14.8524Z" fill="#005743"/>
</g>
</g>
<defs>
<clipPath id="clip0_12_393">
<rect width="40" height="40" fill="white"/>
</clipPath>
</defs>
</svg>
