<svg width="40" height="40" viewBox="0 0 40 40" fill="none" xmlns="http://www.w3.org/2000/svg">
<g id="cyber-security 1" clip-path="url(#clip0_12_447)">
<g id="021---Cyber-Security">
<path id="Shape" d="M16.6666 26.6667H23.3333C24.4379 26.6667 25.3333 25.7712 25.3333 24.6667V18.6667C25.3333 17.5621 24.4379 16.6667 23.3333 16.6667V15.3333C23.3333 13.4924 21.8409 12 20 12C18.159 12 16.6666 13.4924 16.6666 15.3333V16.6667C15.5621 16.6667 14.6666 17.5621 14.6666 18.6667V24.6667C14.6666 25.7712 15.5621 26.6667 16.6666 26.6667ZM18 15.3333C18 14.2288 18.8954 13.3333 20 13.3333C21.1045 13.3333 22 14.2288 22 15.3333V16.6667H18V15.3333ZM16 18.6667C16 18.2985 16.2984 18 16.6666 18H23.3333C23.7015 18 24 18.2985 24 18.6667V24.6667C24 25.0349 23.7015 25.3333 23.3333 25.3333H16.6666C16.2984 25.3333 16 25.0349 16 24.6667V18.6667Z" fill="#005743"/>
<path id="Shape_2" d="M19.3333 23.2106V23.3332C19.3333 23.7014 19.6318 23.9999 19.9999 23.9999C20.3681 23.9999 20.6666 23.7014 20.6666 23.3332V23.2106C21.585 22.8859 22.1359 21.9468 21.9711 20.9867C21.8064 20.0267 20.974 19.325 19.9999 19.325C19.0259 19.325 18.1935 20.0267 18.0287 20.9867C17.864 21.9468 18.4149 22.8859 19.3333 23.2106ZM19.9999 20.6666C20.3681 20.6666 20.6666 20.965 20.6666 21.3332C20.6666 21.7014 20.3681 21.9999 19.9999 21.9999C19.6318 21.9999 19.3333 21.7014 19.3333 21.3332C19.3333 20.965 19.6318 20.6666 19.9999 20.6666Z" fill="#005743"/>
<path id="Shape_3" d="M8.66663 19.9998C8.66663 26.2591 13.7407 31.3332 20 31.3332C26.2592 31.3332 31.3333 26.2591 31.3333 19.9998C31.3333 13.7406 26.2592 8.6665 20 8.6665C13.7436 8.67348 8.67361 13.7435 8.66663 19.9998ZM20 9.99984C25.5228 9.99984 30 14.477 30 19.9998C30 25.5227 25.5228 29.9998 20 29.9998C14.4771 29.9998 9.99996 25.5227 9.99996 19.9998C10.0062 14.4796 14.4797 10.0061 20 9.99984Z" fill="#005743"/>
<path id="Shape_4" d="M33.3333 34.6667C32.121 34.6713 31.0644 35.4929 30.7613 36.6667H26V32.6367C27.4905 31.9351 28.8448 30.9747 30 29.8001C30.1707 29.6308 30.2371 29.3827 30.1737 29.1507C30.1103 28.9188 29.9269 28.739 29.6937 28.6802C29.4606 28.6214 29.2138 28.6926 29.048 28.8667C27.916 30.024 26.5724 30.953 25.09 31.6034C25.0004 31.6389 24.9198 31.6938 24.854 31.7641C24.8466 31.7721 24.8426 31.7827 24.8353 31.7921C24.7865 31.8463 24.7471 31.9083 24.7186 31.9754C24.7056 32.0173 24.6968 32.0604 24.6926 32.1041C24.6802 32.1418 24.6715 32.1806 24.6666 32.2201V32.2321V36.6667C24.6666 37.4031 25.2636 38.0001 26 38.0001H30.7613C31.1101 39.3385 32.4258 40.1868 33.7888 39.9521C35.1519 39.7175 36.1082 38.4781 35.9894 37.1002C35.8707 35.7222 34.7164 34.6647 33.3333 34.6667ZM33.3333 38.6667C32.5969 38.6667 32 38.0698 32 37.3334C32 36.597 32.5969 36.0001 33.3333 36.0001C34.0697 36.0001 34.6666 36.597 34.6666 37.3334C34.6666 38.0698 34.0697 38.6667 33.3333 38.6667Z" fill="#005743"/>
<path id="Shape_5" d="M5.23865 27.3333H8.45998C8.46531 27.3333 8.46998 27.33 8.47598 27.33C8.54229 27.327 8.60774 27.3137 8.66998 27.2906C8.70108 27.2804 8.73138 27.2679 8.76065 27.2533C8.76798 27.2493 8.77665 27.248 8.78398 27.2433C8.79131 27.2386 8.80265 27.2246 8.81331 27.2173C8.87379 27.18 8.92745 27.1326 8.97198 27.0773C8.97985 27.067 8.98719 27.0563 8.99398 27.0453C9.03714 26.9846 9.0696 26.9169 9.08998 26.8453C9.08998 26.8353 9.09398 26.8253 9.09598 26.8153C9.11211 26.7671 9.1224 26.7172 9.12665 26.6666C9.1232 26.6414 9.11808 26.6165 9.11131 26.592C9.11131 26.5833 9.11131 26.5753 9.10665 26.566C9.09533 26.4878 9.0698 26.4123 9.03131 26.3433L9.02798 26.3326C8.34438 25.1526 7.85757 23.8691 7.58665 22.5326C7.51301 22.1718 7.16081 21.939 6.79998 22.0126C6.43915 22.0863 6.20634 22.4385 6.27998 22.7993C6.50428 23.9053 6.86247 24.9799 7.34665 25.9993H5.23865C4.90293 24.6991 3.65279 23.8513 2.32065 24.0205C0.988503 24.1897 -0.0100098 25.3231 -0.0100098 26.666C-0.0100098 28.0088 0.988503 29.1422 2.32065 29.3114C3.65279 29.4806 4.90293 28.6328 5.23865 27.3326V27.3333ZM2.66665 28C1.93027 28 1.33331 27.403 1.33331 26.6666C1.33331 25.9302 1.93027 25.3333 2.66665 25.3333C3.40303 25.3333 3.99998 25.9302 3.99998 26.6666C3.99998 27.403 3.40303 28 2.66665 28Z" fill="#005743"/>
<path id="Shape_6" d="M2.09013e-06 13.3332C-0.00166568 14.6744 0.994916 15.8072 2.32537 15.9765C3.65582 16.1458 4.90437 15.2987 5.23867 13.9998H8.46H8.478C8.54379 13.9961 8.60868 13.9828 8.67067 13.9605C8.69996 13.9512 8.72849 13.9396 8.756 13.9258C8.79154 13.9071 8.82505 13.8848 8.856 13.8592C8.91224 13.8167 8.96092 13.7651 9 13.7065C9.00867 13.6938 9.02 13.6845 9.028 13.6712C9.88284 12.1877 11.03 10.8934 12.4 9.86651C12.5905 9.7236 12.6904 9.4899 12.6619 9.25343C12.6334 9.01697 12.4809 8.81366 12.2619 8.7201C12.0429 8.62654 11.7905 8.65694 11.6 8.79984C10.197 9.85668 9.00579 11.1685 8.08867 12.6665H5.23867C4.90437 11.3677 3.65582 10.5205 2.32537 10.6898C0.994916 10.8591 -0.00166568 11.992 2.09013e-06 13.3332ZM4 13.3332C4 14.0696 3.40305 14.6665 2.66667 14.6665C1.93029 14.6665 1.33334 14.0696 1.33334 13.3332C1.33334 12.5968 1.93029 11.9998 2.66667 11.9998C3.02029 11.9998 3.35943 12.1403 3.60948 12.3904C3.85953 12.6404 4 12.9796 4 13.3332Z" fill="#005743"/>
<path id="Shape_7" d="M37.3333 23.9999C36.121 24.0044 35.0644 24.8261 34.7613 25.9999H32.6526C33.1372 24.9806 33.4955 23.906 33.7193 22.7999C33.7929 22.4388 33.56 22.0865 33.199 22.0129C32.8379 21.9392 32.4856 22.1722 32.412 22.5332C32.1415 23.8697 31.6552 25.1531 30.972 26.3332V26.3419C30.9321 26.4123 30.9059 26.4897 30.8946 26.5699C30.8946 26.5772 30.8946 26.5839 30.89 26.5912C30.8831 26.616 30.8775 26.6411 30.8733 26.6665C30.8773 26.7189 30.8876 26.7706 30.904 26.8205C30.904 26.8292 30.904 26.8379 30.9093 26.8465C30.93 26.9184 30.9632 26.9861 31.0073 27.0465C31.014 27.0565 31.0193 27.0665 31.0266 27.0759C31.0718 27.1315 31.1258 27.1792 31.1866 27.2172C31.1973 27.2245 31.204 27.2359 31.2153 27.2425C31.2266 27.2492 31.2313 27.2485 31.2386 27.2525C31.2682 27.2676 31.299 27.2803 31.3306 27.2905C31.3926 27.3129 31.4575 27.3259 31.5233 27.3292C31.5293 27.3292 31.534 27.3325 31.54 27.3325H34.7613C35.1098 28.6711 36.4254 29.5198 37.7886 29.2853C39.1518 29.0509 40.1083 27.8115 39.9896 26.4334C39.8709 25.0553 38.7165 23.9977 37.3333 23.9999ZM37.3333 27.9999C36.5969 27.9999 36 27.4029 36 26.6665C36 25.9301 36.5969 25.3332 37.3333 25.3332C38.0697 25.3332 38.6666 25.9301 38.6666 26.6665C38.6666 27.4029 38.0697 27.9999 37.3333 27.9999Z" fill="#005743"/>
<path id="Shape_8" d="M15.3333 32.2312V32.2199C15.3291 32.1825 15.3217 32.1455 15.3113 32.1092C15.3066 32.064 15.2974 32.0193 15.284 31.9759C15.2559 31.9098 15.2172 31.8488 15.1693 31.7952C15.1606 31.7852 15.1566 31.7732 15.148 31.7639C15.0818 31.6936 15.001 31.6388 14.9113 31.6032C13.1662 30.833 11.6158 29.6817 10.374 28.2339C10.2212 28.0459 9.97851 27.9555 9.73998 27.9978C9.50145 28.0402 9.30466 28.2086 9.22598 28.4377C9.1473 28.6668 9.19912 28.9206 9.36131 29.1006C10.6434 30.5929 12.2234 31.8005 14 32.6459V36.6666H9.23865C8.90293 35.3664 7.65279 34.5186 6.32065 34.6878C4.9885 34.857 3.98999 35.9904 3.98999 37.3332C3.98999 38.6761 4.9885 39.8094 6.32065 39.9787C7.65279 40.1479 8.90293 39.3001 9.23865 37.9999H14C14.7364 37.9999 15.3333 37.403 15.3333 36.6666V32.2312ZM6.66665 38.6666C5.93027 38.6666 5.33331 38.0696 5.33331 37.3332C5.33331 36.5969 5.93027 35.9999 6.66665 35.9999C7.40303 35.9999 7.99998 36.5969 7.99998 37.3332C7.99998 38.0696 7.40303 38.6666 6.66665 38.6666Z" fill="#005743"/>
<path id="Path" d="M22.5333 32.4134C20.8611 32.7492 19.1388 32.7492 17.4666 32.4134C17.2307 32.3593 16.9841 32.4372 16.8221 32.6171C16.6602 32.7969 16.6084 33.0504 16.6869 33.2793C16.7654 33.5083 16.9617 33.6767 17.2 33.7194C17.9037 33.8561 18.6169 33.9388 19.3333 33.9667V39.3334C19.3333 39.7016 19.6318 40 20 40C20.3681 40 20.6666 39.7016 20.6666 39.3334V33.9667C21.383 33.9389 22.0962 33.8562 22.8 33.7194C23.1527 33.6385 23.3765 33.2908 23.3041 32.9362C23.2317 32.5816 22.8895 32.3495 22.5333 32.4134Z" fill="#005743"/>
<path id="Shape_9" d="M14 1.99995H9.23865C8.90293 0.699749 7.65279 -0.147997 6.32065 0.0212074C4.9885 0.190412 3.98999 1.32377 3.98999 2.66662C3.98999 4.00947 4.9885 5.14283 6.32065 5.31203C7.65279 5.48124 8.90293 4.63349 9.23865 3.33329H14V7.78129C14 7.80795 14.0126 7.83395 14.016 7.86062C14.023 7.92963 14.0407 7.99712 14.0686 8.06062C14.0963 8.12003 14.1332 8.17471 14.178 8.22262C14.2003 8.24681 14.2246 8.26911 14.2506 8.28929C14.2833 8.31601 14.3183 8.33967 14.3553 8.35995C14.3862 8.37703 14.4182 8.39174 14.4513 8.40395C14.499 8.41908 14.5482 8.42892 14.598 8.43329C14.6199 8.43928 14.6422 8.44396 14.6646 8.44729C14.7602 8.44528 14.8541 8.42253 14.94 8.38062C15.7521 8.02847 16.599 7.76257 17.4666 7.58729C17.8277 7.51365 18.0606 7.1613 17.987 6.80029C17.9133 6.43928 17.561 6.20632 17.2 6.27995C16.5664 6.40959 15.9427 6.58335 15.3333 6.79995V3.33329C15.3333 2.59691 14.7364 1.99995 14 1.99995ZM6.66665 3.99995C5.93027 3.99995 5.33331 3.403 5.33331 2.66662C5.33331 1.93024 5.93027 1.33329 6.66665 1.33329C7.40303 1.33329 7.99998 1.93024 7.99998 2.66662C7.99998 3.02024 7.8595 3.35938 7.60945 3.60943C7.35941 3.85948 7.02027 3.99995 6.66665 3.99995Z" fill="#005743"/>
<path id="Shape_10" d="M30.7613 3.33329C31.097 4.63349 32.3472 5.48124 33.6793 5.31203C35.0114 5.14283 36.0099 4.00947 36.0099 2.66662C36.0099 1.32377 35.0114 0.190412 33.6793 0.0212074C32.3472 -0.147997 31.097 0.699749 30.7613 1.99995H26C25.2636 1.99995 24.6666 2.59691 24.6666 3.33329V7.76729V7.77929C24.6707 7.81861 24.6785 7.85746 24.69 7.89529C24.6942 7.93896 24.7029 7.98207 24.716 8.02395C24.7444 8.0911 24.7839 8.15305 24.8326 8.20729C24.84 8.21595 24.844 8.22729 24.8513 8.23529C24.9172 8.30555 24.9978 8.36041 25.0873 8.39595C26.5694 9.04533 27.9131 9.97324 29.0453 11.1293C29.2088 11.311 29.4586 11.3886 29.6963 11.3316C29.9339 11.2747 30.1214 11.0922 30.1847 10.8561C30.2481 10.6201 30.1772 10.3683 30 10.2C28.8448 9.02536 27.4905 8.06493 26 7.36329V3.33329H30.7613ZM33.3333 1.33329C34.0697 1.33329 34.6666 1.93024 34.6666 2.66662C34.6666 3.403 34.0697 3.99995 33.3333 3.99995C32.5969 3.99995 32 3.403 32 2.66662C32 1.93024 32.5969 1.33329 33.3333 1.33329Z" fill="#005743"/>
<path id="Path_2" d="M19.9999 0C19.6317 0 19.3333 0.298477 19.3333 0.666667V6.66667C19.3333 7.03486 19.6317 7.33333 19.9999 7.33333C20.8507 7.33316 21.6994 7.41802 22.5333 7.58667C22.5771 7.59569 22.6218 7.60016 22.6666 7.6C23.0078 7.5987 23.293 7.3399 23.3273 7.00037C23.3616 6.66084 23.134 6.35022 22.7999 6.28067C22.0962 6.14388 21.383 6.0612 20.6666 6.03333V0.666667C20.6666 0.298477 20.3681 0 19.9999 0V0Z" fill="#005743"/>
<path id="Shape_11" d="M34.7613 14C35.097 15.3002 36.3471 16.148 37.6793 15.9788C39.0114 15.8096 40.0099 14.6762 40.0099 13.3334C40.0099 11.9905 39.0114 10.8572 37.6793 10.688C36.3471 10.5188 35.097 11.3665 34.7613 12.6667H31.54C31.5273 12.6667 31.5173 12.6734 31.5053 12.6734C31.4666 12.6775 31.4285 12.6854 31.3913 12.6967C31.3365 12.7075 31.2834 12.7254 31.2333 12.75C31.228 12.75 31.2213 12.75 31.2153 12.7567C31.2093 12.7634 31.198 12.7747 31.1866 12.782C31.1258 12.82 31.0718 12.8677 31.0266 12.9234C31.0193 12.9327 31.014 12.9427 31.0073 12.9527C30.9632 13.0131 30.93 13.0808 30.9093 13.1527C30.9093 13.1614 30.9093 13.17 30.904 13.1787C30.8876 13.2288 30.8773 13.2808 30.8733 13.3334C30.8768 13.3589 30.8817 13.3843 30.888 13.4094C30.888 13.4167 30.8913 13.4234 30.8926 13.4307C30.9039 13.5109 30.9301 13.5882 30.97 13.6587V13.6674C32.0818 15.5926 32.667 17.7768 32.6666 20C32.6666 20.3682 32.9651 20.6667 33.3333 20.6667H39.3333C39.7015 20.6667 40 20.3682 40 20C40 19.6318 39.7015 19.3334 39.3333 19.3334H33.978C33.8905 17.4849 33.4374 15.6722 32.6446 14H34.7613ZM37.3333 12C38.0697 12 38.6666 12.597 38.6666 13.3334C38.6666 14.0697 38.0697 14.6667 37.3333 14.6667C36.5969 14.6667 36 14.0697 36 13.3334C36 12.597 36.5969 12 37.3333 12Z" fill="#005743"/>
<path id="Path_3" d="M0.666667 20.6667H6.66667C7.03486 20.6667 7.33333 20.3683 7.33333 20.0001C7.33192 18.6531 7.5455 17.3144 7.966 16.0347C8.04043 15.8085 7.98849 15.5597 7.82976 15.3821C7.67102 15.2045 7.42959 15.1251 7.19642 15.1738C6.96325 15.2224 6.77376 15.3918 6.69933 15.6181C6.30769 16.8203 6.08118 18.0702 6.026 19.3334H0.666667C0.298477 19.3334 0 19.6319 0 20.0001C0 20.3683 0.298477 20.6667 0.666667 20.6667Z" fill="#005743"/>
</g>
</g>
<defs>
<clipPath id="clip0_12_447">
<rect width="40" height="40" fill="white"/>
</clipPath>
</defs>
</svg>
