<svg width="40" height="40" viewBox="0 0 40 40" fill="none" xmlns="http://www.w3.org/2000/svg">
<g id="delivery-man 1" clip-path="url(#clip0_12_437)">
<g id="Group">
<path id="Vector" d="M39.3443 14.4262H32.7869H27.541H20.9836C20.5902 14.4262 20.3279 14.6885 20.3279 15.082V19.4754L18.6885 19.082L16.918 17.3115C18.8852 15.4754 19.0164 11.6066 19.0164 10.4918C21.4426 10.4918 23.1475 9.83607 23.8033 8.65574C24.0656 8.13115 24.2623 7.27869 23.541 6.16393C22.8197 5.11475 21.9016 4.59016 20.6557 4.59016C20.5902 4.59016 18.2951 4.59016 18.2951 4.59016C18.0984 3.40984 17.3115 0.918033 14.2295 0.196721C13.5738 0.0655737 12.6557 0 12.459 0C5.63935 0 4.59016 3.27869 4.59016 5.2459V8.52459C4.59016 8.98361 4.78689 9.5082 5.18033 9.90164C4.85246 10.2951 4.59016 10.9508 4.59016 11.8033C4.59016 13.4426 5.70492 14.1639 6.68853 14.3607C7.01639 15.3443 7.47541 16.0656 7.93443 16.6557L5.5082 19.082C4.98361 19.6721 5.63935 20.2623 5.63935 20.2623L2.81967 23.082C2.55738 23.4098 0 26.0328 0 28.1967C0 28.3279 -6.35131e-08 28.3934 0.0655737 28.459L3.34426 35.0164C3.40984 35.2131 3.60656 35.2787 3.7377 35.3443C3.80328 35.3443 4.39344 35.541 5.2459 35.541C5.2459 35.6066 5.18033 39.2787 5.18033 39.2787C5.18033 39.6721 5.44262 39.9344 5.83607 39.9344C6.22951 39.9344 6.4918 39.6721 6.4918 39.2787V37.4426C7.47541 38.6229 9.04918 39.9344 11.082 39.9344C13.1148 39.9344 16.8525 38.6229 20.1311 37.4426C20.7213 37.2459 21.2459 37.0492 21.7705 36.8525C21.9016 36.7869 22.0328 36.7869 22.2295 36.7213V39.3443C22.2295 39.7377 22.4918 40 22.8852 40C23.2787 40 23.541 39.7377 23.541 39.3443V36.3934C24.7213 36.1311 25.8361 36 26.8197 36.0656H31.4098C32.5246 36.0656 34.0328 35.6721 34.4918 34.4918C34.623 34.1639 34.6885 33.8361 34.6885 33.4426H39.2787C39.6721 33.4426 39.9344 33.1803 39.9344 32.7869V15.082C40 14.6885 39.7377 14.4262 39.3443 14.4262ZM32.1311 15.7377V19.2787L30.4262 18.4262C30.3607 18.3607 30.2951 18.3607 30.1639 18.3607C30.0328 18.3607 29.9672 18.3607 29.9016 18.4262L28.1967 19.2787V15.7377H32.1311ZM12.9836 19.3443C12.918 19.2131 12.5902 19.0164 12.5902 19.0164C13.3771 19.0164 14.0328 18.8852 14.6885 18.6885L14.4262 19.4754L13.7705 21.1803C13.7705 21.1803 13.0492 19.3443 12.9836 19.3443ZM16.1967 18.4262L17.5738 19.8033L16.918 21.0492L15.8033 19.541L16.1967 18.4262ZM17.3771 5.90164C16.7869 6.36066 16.2623 6.95082 15.8689 7.47541C14.7541 9.11475 13.7705 9.18033 13.7705 9.18033H10.2951C10.5574 8.91803 10.8197 8.59016 11.0164 8.26229C11.8033 7.08197 13.2459 5.90164 14.4262 5.90164H17.3771ZM22.4262 6.95082C22.7541 7.40984 22.8197 7.80328 22.623 8.06557C22.3607 8.59016 21.2459 9.18033 19.0164 9.18033H18.9508C18.8197 8 18.623 7.14754 18.4918 6.68852C19.2131 6.22951 19.9344 5.90164 20.6557 5.90164C21.3771 5.90164 21.9672 6.22951 22.4262 6.95082ZM5.90164 5.2459C5.90164 2.88525 7.80328 1.90164 9.96721 1.5082C8.85246 2.68852 8.52459 4.19672 8.52459 5.2459C8.52459 5.63934 8.78689 5.90164 9.18033 5.90164C9.5082 5.90164 9.83607 5.63934 9.83607 5.2459C9.83607 4.85246 9.96721 1.70492 13.1803 1.37705C16 1.63934 16.7869 3.60656 16.9836 4.59016H14.4262C12.6557 4.59016 10.8852 6.03279 9.96721 7.47541C8.85246 9.11475 7.86885 9.18033 7.86885 9.18033H6.55738C6.03279 9.18033 5.90164 8.85246 5.90164 8.52459V5.2459ZM7.21312 13.1148C7.01639 13.1148 5.90164 13.0492 5.90164 11.8033C5.90164 10.623 6.42623 10.4918 6.55738 10.4918H13.7705C13.9672 10.4918 15.4754 10.4262 16.918 8.26229C17.0492 8.06557 17.1803 7.86885 17.3771 7.67213C17.5082 8.26229 17.7049 9.2459 17.7049 10.5574C17.7049 10.623 17.9672 14.2295 16.0656 16.3279C15.2131 17.2459 13.9672 17.7049 12.459 17.7049C12.3934 17.7049 8.98361 17.6393 7.86885 13.5738C7.73771 13.3115 7.47541 13.1148 7.21312 13.1148ZM8.59017 17.9016L11.4754 19.8033L9.70492 22.0328L6.81967 19.6721L8.59017 17.9016ZM1.31148 28.0656C1.44262 26.6885 3.08197 24.7213 3.7377 24.0656L6.62295 21.1803L9.37705 23.4754C9.5082 23.6066 9.63935 23.6066 9.77049 23.6066H9.83607C10.0328 23.6066 10.1639 23.4754 10.2951 23.3443L12.1967 20.918L13.1148 23.1475C13.2459 23.4098 13.4426 23.541 13.7049 23.541C13.9672 23.541 14.2295 23.4098 14.2951 23.1475L15.1475 20.9836L16.3934 22.6885C16.5246 22.8852 16.7213 22.9508 16.9836 22.9508C17.1803 22.9508 17.3771 22.8197 17.5082 22.623L18.5574 20.459L20.1967 20.8525V31.2787C19.2131 31.6066 18.0328 32 16.7869 32.3934C15.8033 32.7213 14.8197 33.0492 13.9016 33.377C12.7869 33.7705 11.4754 33.3115 10.8852 32.2623L8.32787 27.8689C8.13115 27.541 7.73771 27.4754 7.40984 27.6721C7.08197 27.8689 7.01639 28.2623 7.21312 28.5902L9.04918 31.6066C8 34.6885 5.18033 34.4262 4.32787 34.2295L1.31148 28.0656ZM33.3115 33.9672C33.1148 34.4918 32.1967 34.7541 31.4754 34.7541H26.9508C24.7869 34.623 22.5574 35.2787 21.4426 35.6721C20.918 35.8689 20.3279 36.0656 19.8033 36.2623C16.7213 37.3115 12.9836 38.6885 11.1475 38.6885C8.85246 38.6885 7.21312 36.3279 6.68853 35.4754C7.80328 35.2131 9.04918 34.623 9.96721 33.0492C10.6885 34.1639 11.9344 34.8197 13.2459 34.8197C13.6393 34.8197 14.0328 34.7541 14.4262 34.623C15.2787 34.3607 16.2623 34.0328 17.3115 33.6393C20.1967 32.6557 23.7377 31.4754 24.6557 31.4754H29.2459C29.4426 31.4754 29.8361 31.6066 29.9016 32.1311H28.1967C27.8033 32.1311 27.541 32.3934 27.541 32.7869C27.541 33.1803 27.8033 33.4426 28.1967 33.4426C28.1967 33.4426 33.1803 33.5082 33.4426 33.5082C33.4426 33.6393 33.3771 33.8361 33.3115 33.9672ZM38.6885 32.1311H31.2131C31.1475 30.6885 30.0328 30.1639 29.2459 30.1639H24.6557C24.0656 30.1639 23.082 30.4262 21.6393 30.8197V15.7377H26.8852V20.3279C26.8852 20.5246 27.0164 20.7869 27.2131 20.918C27.4098 21.0492 27.6721 21.0492 27.8689 20.918L30.2295 19.7377L32.5902 20.918C32.5902 20.9836 32.6557 20.9836 32.7869 20.9836C32.918 20.9836 33.0492 20.9836 33.1148 20.918C33.3115 20.7869 33.4426 20.5902 33.4426 20.3279V15.7377H38.6885V32.1311Z" fill="#005743"/>
<path id="Vector_2" d="M26.8853 27.541H24.2623C23.8689 27.541 23.6066 27.8033 23.6066 28.1968C23.6066 28.5902 23.8689 28.8525 24.2623 28.8525H26.8853C27.2787 28.8525 27.541 28.5902 27.541 28.1968C27.541 27.8033 27.2787 27.541 26.8853 27.541Z" fill="#005743"/>
<path id="Vector_3" d="M24.2623 26.8852H25.5738C25.9672 26.8852 26.2295 26.6229 26.2295 26.2295C26.2295 25.836 25.9672 25.5737 25.5738 25.5737H24.2623C23.8689 25.5737 23.6066 25.836 23.6066 26.2295C23.6066 26.6229 23.8689 26.8852 24.2623 26.8852Z" fill="#005743"/>
</g>
</g>
<defs>
<clipPath id="clip0_12_437">
<rect width="40" height="40" fill="white"/>
</clipPath>
</defs>
</svg>
