<svg width="40" height="40" viewBox="0 0 40 40" fill="none" xmlns="http://www.w3.org/2000/svg">
<g id="like 1" clip-path="url(#clip0_12_413)">
<g id="Group">
<g id="Group_2">
<path id="Vector" d="M14.3047 28.8498C14.1593 28.7044 13.9586 28.6208 13.7523 28.6208C13.5468 28.6208 13.3453 28.7044 13.2 28.8498C13.0547 28.9951 12.9711 29.1966 12.9711 29.4021C12.9711 29.6084 13.0547 29.8091 13.2 29.9544C13.3453 30.1005 13.5468 30.1833 13.7523 30.1833C13.9578 30.1833 14.1593 30.1005 14.3047 29.9544C14.4507 29.8091 14.5336 29.6076 14.5336 29.4021C14.5336 29.1966 14.4507 28.9951 14.3047 28.8498Z" fill="#005743"/>
</g>
</g>
<g id="Group_3">
<g id="Group_4">
<path id="Vector_2" d="M37.5194 27.2112C37.5194 26.2533 37.0935 25.3935 36.4217 24.8095C37.0935 24.2256 37.5194 23.3659 37.5194 22.4079C37.5194 20.6529 36.0916 19.2252 34.3367 19.2252H25.8148L27.9995 13.1238C28.3418 12.1676 28.2792 11.1413 27.8229 10.2339C27.3667 9.32659 26.5803 8.66417 25.6086 8.36878C23.7645 7.80816 21.7855 8.78081 21.1028 10.5831L20.3809 12.4891C19.1683 15.6901 16.9257 18.3932 14.0217 20.1779C13.5733 19.599 12.8722 19.2252 12.085 19.2252H3.26184C2.83035 19.2252 2.48059 19.575 2.48059 20.0064V39.2186C2.48059 39.65 2.83035 39.9998 3.26184 39.9998H12.0849C12.9726 39.9998 13.7515 39.5249 14.1811 38.816L15.1883 39.211C16.5232 39.7345 17.9272 40.0001 19.3611 40.0001H34.3367C36.0916 40.0001 37.5194 38.5724 37.5194 36.8174C37.5194 35.8596 37.0935 34.9998 36.4218 34.4158C37.0935 33.8318 37.5194 32.9722 37.5194 32.0143C37.5194 31.0564 37.0935 30.1967 36.4218 29.6127C37.0935 29.0287 37.5194 28.169 37.5194 27.2112ZM28.2882 25.5908L34.3367 25.591C35.2301 25.591 35.957 26.3179 35.957 27.2113C35.957 28.1048 35.2301 28.8316 34.3367 28.8316H28.2882V28.8315C27.8567 28.8315 27.5069 29.1813 27.5069 29.6127C27.5069 30.0441 27.8567 30.394 28.2882 30.394H34.3367C35.2301 30.394 35.957 31.1208 35.957 32.0142C35.957 32.9075 35.2301 33.6344 34.3367 33.6344H28.2882C27.8567 33.6344 27.5069 33.9843 27.5069 34.4157C27.5069 34.8471 27.8567 35.1969 28.2882 35.1969H34.3367C35.2301 35.1969 35.957 35.9238 35.957 36.8172C35.957 37.7106 35.2301 38.4374 34.3367 38.4374H19.3611C18.1232 38.4374 16.9113 38.2082 15.7589 37.7563L14.5339 37.2758V32.5258C14.5339 32.0943 14.1841 31.7445 13.7526 31.7445C13.3212 31.7445 12.9714 32.0943 12.9714 32.5258V37.5506C12.9714 38.0395 12.5737 38.4372 12.0849 38.4372H4.04308V20.7877H12.0849C12.4755 20.7877 12.8073 21.042 12.9251 21.3935C12.9321 21.4371 12.9429 21.4803 12.9576 21.5231C12.9661 21.5723 12.9714 21.6225 12.9714 21.6742V26.0937C12.9714 26.5251 13.3212 26.8749 13.7526 26.8749C14.1841 26.8749 14.5339 26.5251 14.5339 26.0937V21.6925C17.88 19.7316 20.4646 16.6789 21.842 13.0426L22.5639 11.1367C22.9563 10.1006 24.0939 9.54151 25.154 9.86377C25.7126 10.0336 26.1647 10.4144 26.4269 10.936C26.6892 11.4576 26.7253 12.0476 26.5285 12.5972L23.9698 19.7432C23.8841 19.9825 23.9202 20.2486 24.0666 20.4564C24.2129 20.6642 24.4512 20.7879 24.7053 20.7879H34.3367C35.2301 20.7879 35.957 21.5147 35.957 22.4081C35.957 23.3014 35.2301 24.0283 34.3367 24.0283H28.2882C27.8567 24.0283 27.5069 24.3781 27.5069 24.8095C27.5069 25.2409 27.8567 25.5908 28.2882 25.5908Z" fill="#005743"/>
</g>
</g>
<g id="Group_5">
<g id="Group_6">
<path id="Vector_3" d="M24.6311 0C24.1996 0 23.8499 0.349842 23.8499 0.781245V4.5399C23.8499 4.97138 24.1996 5.32114 24.6311 5.32114C25.0626 5.32114 25.4123 4.9713 25.4123 4.5399V0.781245C25.4123 0.349842 25.0626 0 24.6311 0Z" fill="#005743"/>
</g>
</g>
<g id="Group_7">
<g id="Group_8">
<path id="Vector_4" d="M31.2365 4.1899C30.9314 3.88498 30.4368 3.8849 30.1317 4.1899L28.5981 5.72349C28.293 6.02856 28.2929 6.52325 28.5981 6.8284C28.7507 6.9809 28.9506 7.05723 29.1505 7.05723C29.3504 7.05723 29.5504 6.9809 29.7029 6.8284L31.2365 5.29482C31.5417 4.98974 31.5417 4.49506 31.2365 4.1899Z" fill="#005743"/>
</g>
</g>
<g id="Group_9">
<g id="Group_10">
<path id="Vector_5" d="M20.6641 5.72352L19.1304 4.18993C18.8253 3.88493 18.3306 3.88493 18.0256 4.18993C17.7205 4.49501 17.7205 4.98969 18.0256 5.29485L19.5592 6.82843C19.7118 6.98093 19.9117 7.05726 20.1116 7.05726C20.3116 7.05726 20.5116 6.98093 20.6641 6.82843C20.9692 6.52335 20.9692 6.02867 20.6641 5.72352Z" fill="#005743"/>
</g>
</g>
<g id="Group_11">
<g id="Group_12">
<path id="Vector_6" d="M8.35302 34.2063C7.92154 34.2063 7.57178 34.5561 7.57178 34.9875V34.9997C7.57178 35.4311 7.92154 35.781 8.35302 35.781C8.7845 35.781 9.13427 35.4311 9.13427 34.9997V34.9875C9.13427 34.5561 8.7845 34.2063 8.35302 34.2063Z" fill="#005743"/>
</g>
</g>
</g>
<defs>
<clipPath id="clip0_12_413">
<rect width="40" height="40" fill="white"/>
</clipPath>
</defs>
</svg>
