<svg width="40" height="40" viewBox="0 0 40 40" fill="none" xmlns="http://www.w3.org/2000/svg">
<g id="shield 1" clip-path="url(#clip0_12_403)">
<g id="Shield">
<path id="Vector" d="M14.4941 18.7793C14.3598 18.645 14.1776 18.5695 13.9877 18.5695C13.7977 18.5695 13.6155 18.645 13.4812 18.7793C13.3468 18.9137 13.2714 19.0959 13.2714 19.2858C13.2714 19.4758 13.3468 19.658 13.4812 19.7923C18.1894 24.5006 17.8612 24.2794 18.2679 24.2794C18.6745 24.2794 18.1965 24.6432 25.9081 16.9388C26.0424 16.8045 26.1179 16.6223 26.1179 16.4324C26.1179 16.2424 26.0424 16.0602 25.9081 15.9259C25.7737 15.7915 25.5915 15.7161 25.4016 15.7161C25.2116 15.7161 25.0294 15.7915 24.8951 15.9259L18.2679 22.5602L14.4941 18.7793Z" fill="#005743"/>
<path id="Vector_2" d="M34.8681 4.30503C18.5605 -0.331872 19.7875 -0.0322565 19.5021 0.0248131L4.52137 4.30503C4.36707 4.34818 4.23178 4.44202 4.13731 4.57143C4.04284 4.70084 3.99469 4.85829 4.00061 5.0184V19.3999C4.00838 24.0453 5.52391 28.5625 8.31934 32.2726C11.1148 35.9827 15.039 38.6851 19.5021 39.9735C19.6281 40.0088 19.7614 40.0088 19.8873 39.9735C24.3504 38.6851 28.2747 35.9827 31.0701 32.2726C33.8656 28.5625 35.3811 24.0453 35.3889 19.3999V5.0184C35.3948 4.85829 35.3466 4.70084 35.2522 4.57143C35.1577 4.44202 35.0224 4.34818 34.8681 4.30503ZM33.9621 19.3999C33.9541 23.7001 32.5625 27.8835 29.9931 31.3316C27.4238 34.7797 23.813 37.3094 19.6947 38.5468C15.5811 37.3108 11.9737 34.7854 9.40482 31.343C6.83589 27.9006 5.44149 23.7237 5.42735 19.4285V5.55343L19.6947 1.45155L33.9621 5.52489V19.3999Z" fill="#005743"/>
<path id="Vector_3" d="M19.5022 3.02094L7.37489 6.48791C7.2277 6.52914 7.09764 6.61656 7.00389 6.73729C6.91013 6.85802 6.85763 7.00566 6.85413 7.15848V19.3999C6.85903 23.2761 8.07822 27.0534 10.3404 30.201C12.6026 33.3486 15.7941 35.7084 19.4665 36.9488C20.8932 37.4267 32.5354 31.8197 32.5354 19.3999V7.15848C32.5413 6.99837 32.4932 6.84092 32.3987 6.71151C32.3043 6.5821 32.169 6.48826 32.0147 6.44511C18.7603 2.69992 19.7804 2.94247 19.5022 3.02094ZM31.1087 7.70778V19.3999C31.1094 22.9373 30.0117 26.3877 27.9671 29.2744C25.9225 32.1611 23.032 34.3417 19.6948 35.5149C16.3576 34.3417 13.467 32.1611 11.4224 29.2744C9.37786 26.3877 8.28012 22.9373 8.28086 19.3999V7.70778L19.6948 4.44768L31.1087 7.70778Z" fill="#005743"/>
</g>
</g>
<defs>
<clipPath id="clip0_12_403">
<rect width="40" height="40" fill="white"/>
</clipPath>
</defs>
</svg>
